<?xml version="1.0" encoding="utf-8"?>
<svg width="207px" height="91px" viewBox="0 0 207 91" version="1.1" xmlns:xlink="http://www.w3.org/1999/xlink" xmlns="http://www.w3.org/2000/svg">
  <defs>
    <linearGradient x1="-0.0217100866" y1="0.8891653" x2="0.854951143" y2="0.129179224" id="gradient_1">
      <stop offset="0.01" stop-color="#0064B1" />
      <stop offset="0.32" stop-color="#434C93" />
      <stop offset="0.99" stop-color="#E1144D" />
    </linearGradient>
    <radialGradient gradientUnits="objectBoundingBox" cx="50%" cy="50%" fx="50%" fy="50%" r="65.45847%" gradientTransform="translate(0.5,0.5),scale(0.895496,1),rotate(38.54781),scale(1,0.5626239),translate(-0.5,-0.5)" id="gradient_2">
      <stop offset="0%" stop-color="#FFFFFF" stop-opacity="0.2" />
      <stop offset="37%" stop-color="#FFFFFF" stop-opacity="0.101960786" />
      <stop offset="74%" stop-color="#FFFFFF" stop-opacity="0.03137255" />
      <stop offset="100%" stop-color="#FFFFFF" stop-opacity="0" />
    </radialGradient>
    <radialGradient gradientUnits="objectBoundingBox" cx="50.40894%" cy="50.44402%" fx="50.40894%" fy="50.44402%" r="49.36571%" gradientTransform="translate(0.5040894,0.5044402),scale(0.8954262,1),rotate(44.46672),scale(1,0.6560854),translate(-0.5040894,-0.5044402)" id="gradient_3">
      <stop offset="0%" stop-color="#FFFFFF" stop-opacity="0.23137255" />
      <stop offset="100%" stop-color="#FFFFFF" stop-opacity="0" />
    </radialGradient>
    <radialGradient gradientUnits="objectBoundingBox" cx="50%" cy="56.32707%" fx="50%" fy="56.32707%" r="65.09105%" gradientTransform="translate(0.5,0.5632707),scale(0.9109107,1),rotate(39.84452),scale(1,0.4857517),translate(-0.5,-0.5632707)" id="gradient_4">
      <stop offset="0%" stop-color="#FFFFFF" stop-opacity="0.5019608" />
      <stop offset="16%" stop-color="#FFFFFF" stop-opacity="0.3882353" />
      <stop offset="42%" stop-color="#FFFFFF" stop-opacity="0.219607845" />
      <stop offset="66%" stop-color="#FFFFFF" stop-opacity="0.101960786" />
      <stop offset="86%" stop-color="#FFFFFF" stop-opacity="0.03137255" />
      <stop offset="100%" stop-color="#FFFFFF" stop-opacity="0" />
    </radialGradient>
    <radialGradient gradientUnits="objectBoundingBox" cx="50%" cy="53.22187%" fx="50%" fy="53.22187%" r="59.45467%" gradientTransform="translate(0.5,0.5322187),scale(0.895358,1),rotate(38.70288),scale(1,0.5935282),translate(-0.5,-0.5322187)" id="gradient_5">
      <stop offset="0%" stop-color="#FFFFFF" stop-opacity="0.298039228" />
      <stop offset="19%" stop-color="#FFFFFF" stop-opacity="0.219607845" />
      <stop offset="52%" stop-color="#FFFFFF" stop-opacity="0.101960786" />
      <stop offset="80%" stop-color="#FFFFFF" stop-opacity="0.03137255" />
      <stop offset="100%" stop-color="#FFFFFF" stop-opacity="0" />
    </radialGradient>
    <linearGradient x1="0.781372547" y1="0.180039749" x2="0.371561468" y2="0.6446225" id="gradient_6">
      <stop offset="0" stop-color="#FFFFFF" stop-opacity="0.5019608" />
      <stop offset="0.16" stop-color="#FFFFFF" stop-opacity="0.3882353" />
      <stop offset="0.42" stop-color="#FFFFFF" stop-opacity="0.219607845" />
      <stop offset="0.66" stop-color="#FFFFFF" stop-opacity="0.101960786" />
      <stop offset="0.86" stop-color="#FFFFFF" stop-opacity="0.03137255" />
      <stop offset="1" stop-color="#FFFFFF" stop-opacity="0" />
    </linearGradient>
    <linearGradient x1="0.711176336" y1="1.27440107" x2="0.447802246" y2="0.410819262" id="gradient_7">
      <stop offset="0" stop-color="#FFFFFF" stop-opacity="0.5019608" />
      <stop offset="0.480657935" stop-color="#FFFFFF" stop-opacity="0.3882353" />
      <stop offset="0.660497844" stop-color="#FFFFFF" stop-opacity="0.219607845" />
      <stop offset="0.798560739" stop-color="#FFFFFF" stop-opacity="0.101960786" />
      <stop offset="0.9138548" stop-color="#FFFFFF" stop-opacity="0.03137255" />
      <stop offset="1" stop-color="#FFFFFF" stop-opacity="0" />
    </linearGradient>
    <path d="M38.3684 0C17.6509 0 0.777273 16.4871 0.0389143 37.1001C0.0389143 37.3921 0.000910517 37.6895 0.000910517 38.0085L0.000910517 74.2813C-0.0838227 81.6917 5.75578 87.8295 13.1897 88.1437C20.6237 88.4579 26.9644 82.8348 27.5102 75.4439C31.0339 76.4896 34.6916 77.0196 38.3684 77.0174C59.5419 77.0174 76.7305 59.7787 76.7305 38.5114C76.7305 17.2442 59.5528 0 38.3684 0Z" transform="translate(2.855172 8.53125)" id="path_1" />
    <clipPath id="mask_1">
      <use xlink:href="#path_1" />
    </clipPath>
  </defs>
  <g id="LOGO">
    <g id="logo-horizontal">
      <g id="logotipo" transform="translate(91.36552 15.64063)">
        <path d="M5.29147 0C6.4151 0 8.59801 0.379619 8.59801 1.76005C8.61698 2.02658 8.52654 2.28936 8.34738 2.48824C8.16823 2.68713 7.91571 2.80508 7.64763 2.8151C7.01404 2.8151 6.5834 2.26292 5.29147 2.26292C3.38575 2.26292 2.40071 3.91451 2.40071 5.83233C2.40071 7.75015 3.3907 9.30806 5.29147 9.30806C6.5834 9.30806 7.10809 8.64743 7.73673 8.64743C8.30124 8.68789 8.74257 9.14879 8.75641 9.71233C8.75641 11.2209 6.42995 11.571 5.29147 11.571C2.17302 11.571 0 9.03691 0 5.78796C0 2.53901 2.15322 0 5.29147 0Z" transform="translate(0.3545292 32.91998)" id="Shape" fill="#777677" stroke="none" />
        <path d="M5.29147 0C2.15322 0 0 2.51436 0 5.78796C0 9.03691 2.13837 11.571 5.29147 11.571C8.44457 11.571 10.5829 8.98268 10.5829 5.78796C10.5829 2.59324 8.42972 0 5.29147 0ZM5.29147 2.16925C7.19224 2.16925 8.18222 3.88493 8.18222 5.78796L8.17232 5.78796C8.17232 7.70085 7.24669 9.40174 5.29147 9.40174C3.33625 9.40174 2.39576 7.69099 2.39576 5.78796C2.39576 3.88493 3.3907 2.16925 5.29147 2.16925Z" transform="translate(14.36776 32.91998)" id="Shape" fill="#777677" fill-rule="evenodd" stroke="none" />
        <path d="M0.00851374 1.14872C0.00851374 0.514298 0.524878 0 1.16185 0C1.79881 0 2.31518 0.514298 2.31518 1.14872L2.31518 9.03691L5.05248 9.03691C5.35574 9.02349 5.65031 9.1397 5.86211 9.35629C6.0739 9.57289 6.18274 9.86925 6.16127 10.1708C6.13454 10.7582 5.64274 11.2175 5.05248 11.2062L1.20639 11.2062C0.867246 11.2217 0.538444 11.0876 0.307608 10.8397C0.0767724 10.5917 -0.032645 10.2551 0.00851374 9.9194L0.00851374 1.14872Z" transform="translate(30.50589 33.09253)" id="Shape" fill="#777677" stroke="none" />
        <path d="M5.29147 0C2.15322 0 0 2.51436 0 5.78796C0 9.03691 2.13837 11.571 5.29147 11.571C8.44457 11.571 10.5829 8.98268 10.5829 5.78796C10.5829 2.59324 8.42972 0 5.29147 0ZM5.29147 2.16925C7.19223 2.16925 8.18222 3.88493 8.18222 5.78796C8.18222 7.70085 7.24173 9.40174 5.29147 9.40174C3.3412 9.40174 2.40071 7.69099 2.40071 5.78796C2.40071 3.88493 3.3907 2.16925 5.29147 2.16925Z" transform="translate(41.24583 32.91998)" id="Shape" fill="#777677" fill-rule="evenodd" stroke="none" />
        <path d="M1.47536 1.20788C1.63453 0.504052 2.26074 0.00304581 2.98509 0C3.68682 0.0127345 4.30399 0.465365 4.52452 1.129L6.33619 7.35081L6.36589 7.35081L8.18251 1.129C8.40048 0.463524 9.0192 0.00975974 9.72194 1.40122e-14C10.4383 0.010816 11.0531 0.510924 11.2069 1.20788L12.6374 9.97856C12.6444 10.0672 12.6444 10.1562 12.6374 10.2448C12.6542 10.5438 12.5443 10.8362 12.3345 11.0508C12.1247 11.2654 11.8342 11.3825 11.5336 11.3738C10.7466 11.3738 10.4397 11.0139 10.3308 10.2744L9.42494 3.86521L9.39524 3.86521L7.57367 10.4666C7.41583 11.017 6.91082 11.3964 6.33619 11.3964C5.76155 11.3964 5.25654 11.017 5.09871 10.4666L3.25239 3.88L3.22269 3.88L2.3119 10.2892C2.203 11.0287 1.89611 11.3886 1.11402 11.3886C0.81302 11.3972 0.522086 11.2802 0.311522 11.0658C0.100957 10.8514 -0.0100817 10.5591 0.00523773 10.2596C-0.00174591 10.171 -0.00174591 10.082 0.00523773 9.99335L1.47536 1.20788Z" transform="translate(57.04075 33.01858)" id="Shape" fill="#777677" stroke="none" />
        <path d="M0.340656 0.316454C0.107023 0.542531 -0.0166091 0.858463 0.00179783 1.18238L0.0215975 9.99743C0.0081325 10.3239 0.134887 10.6406 0.370137 10.8683C0.605387 11.0961 0.926871 11.2132 1.25413 11.1905L4.42208 11.1905C6.5456 11.1905 7.99097 9.99743 7.99097 7.78381C7.98498 6.43938 6.99081 5.30234 5.65461 5.11169L5.65461 5.07718C6.57964 4.69408 7.15554 3.76522 7.08514 2.76988C7.09447 2.0127 6.78834 1.28552 6.23961 0.761404C5.69087 0.237286 4.9486 -0.0369057 4.18943 0.00408314L1.21948 0.00408314C0.894926 -0.0235908 0.574289 0.0903774 0.340656 0.316454ZM2.30846 4.43626L3.51129 4.43626C3.84973 4.46336 4.18306 4.3412 4.42315 4.10208C4.66323 3.86295 4.78588 3.53095 4.75867 3.19387C4.76062 2.87441 4.62541 2.56935 4.3871 2.35554C4.14878 2.14173 3.83009 2.03954 3.51129 2.07473L2.30846 2.07473L2.30846 4.43626ZM4.12508 9.11987L2.30846 9.11987L2.30846 6.50691L3.94194 6.50691C5.01607 6.50691 5.57046 7.00978 5.57046 7.7493C5.58795 8.13018 5.43877 8.49991 5.16152 8.76281C4.88426 9.02572 4.50618 9.15597 4.12508 9.11987Z" transform="translate(75.38365 33.10817)" id="Shape" fill="#777677" fill-rule="evenodd" stroke="none" />
        <path d="M0 1.14872C5.62741e-14 0.514298 0.516364 0 1.15333 0C1.7903 0 2.30666 0.514298 2.30666 1.14872L2.30666 10.0772C2.30666 10.4876 2.08684 10.8668 1.73 11.072C1.37316 11.2772 0.933508 11.2772 0.576666 11.072C0.219824 10.8668 -9.82393e-08 10.4876 1.12548e-13 10.0772L0 1.14872Z" transform="translate(88.82944 33.09253)" id="Shape" fill="#777677" stroke="none" />
        <path d="M4.84102 0C4.07013 0.0433956 3.41101 0.567396 3.19765 1.30648L0.103948 9.87503C0.0368865 10.0395 0.00161902 10.2152 0 10.3927C0.00257513 10.6895 0.12447 10.9729 0.338425 11.1795C0.55238 11.3861 0.840546 11.4987 1.13848 11.4921C1.66172 11.5213 2.12911 11.1686 2.24231 10.6589L2.70761 9.17988L6.97939 9.17988L7.44468 10.6589C7.5706 11.1641 8.04189 11.5068 8.56336 11.4724C8.84332 11.479 9.11412 11.3729 9.31444 11.178C9.51477 10.9831 9.62768 10.716 9.6276 10.4371C9.61831 10.2377 9.57651 10.0413 9.50385 9.85531L6.48935 1.30648C6.29339 0.553936 5.6213 0.0212233 4.84102 0ZM6.29135 7.01063L3.36595 7.01063L4.82617 2.4552L4.86082 2.4552L6.29135 7.01063Z" transform="translate(96.47211 32.91998)" id="Shape" fill="#777677" fill-rule="evenodd" stroke="none" />
        <path d="M0.599985 0.622239C0.199172 1.03173 -0.0127709 1.5887 0.0148498 2.15992L0 16.832C0 18.3504 0.886036 19.1245 2.11362 19.1245C3.3412 19.1245 4.22723 18.3504 4.22723 16.832L4.22723 12.8583L7.43478 12.8583C11.4492 12.8583 13.6667 10.1516 13.6667 6.44913C13.6667 2.15992 10.5631 0.000531272 7.30609 0.000531272L2.12847 0.000531272C1.55443 -0.0124441 1.0008 0.212746 0.599985 0.622239ZM6.50915 9.03251L4.24208 9.03251L4.24208 3.83616L6.50915 3.83616C8.17727 3.83616 9.3009 4.74331 9.3009 6.44913C9.30152 7.16938 9.00079 7.85733 8.47101 8.34757C7.94122 8.83781 7.2303 9.08602 6.50915 9.03251Z" transform="translate(0.3842287 8.929486)" id="Shape" fill="#777677" fill-rule="evenodd" stroke="none" />
        <path d="M4.22723 11.5069C4.22723 14.041 5.94486 15.4017 8.03372 15.4017C10.1226 15.4017 11.865 14.041 11.865 11.5069L11.865 2.28758C11.865 0.769099 12.751 0 13.9786 0C15.2062 0 16.0922 0.769099 16.0922 2.28758L16.0922 11.5069C16.0922 16.5159 12.7262 19.5578 8.03372 19.5578C3.3412 19.5578 0 16.5159 0 11.5069L0 2.28758C0 0.769099 0.886036 0 2.11362 0C3.3412 0 4.22723 0.769099 4.22723 2.28758L4.22723 11.5069Z" transform="translate(17.32286 8.772254)" id="Shape" fill="#777677" stroke="none" />
        <path d="M0 2.28758C0 0.769099 0.890986 0 2.11362 0C3.23725 0 3.62829 0.493012 5.03407 2.31716L12.0481 11.2949L12.1026 11.2949L12.1026 2.28758C12.1026 0.769099 12.9886 0 14.2162 0C15.4438 0 16.3248 0.769099 16.3248 2.28758L16.3248 16.9991C16.3248 18.5175 15.4388 19.2916 14.2162 19.2916C13.0925 19.2916 12.6767 18.7985 11.2957 16.9695L4.27673 7.99172L4.22723 7.99172L4.22723 16.9991C4.22723 18.5175 3.3412 19.2916 2.11362 19.2916C0.886036 19.2916 0 18.5175 0 16.9991L0 2.28758Z" transform="translate(37.38984 8.772254)" id="Shape" fill="#777677" stroke="none" />
        <path d="M4.56383 3.97368L2.18787 3.97368C0.782088 3.97368 0 3.175 0 1.97205C0 0.769099 0.782088 0 2.18787 0L11.1571 0C12.5679 0 13.3499 0.744448 13.3499 1.97205C13.3499 3.19965 12.5679 3.97368 11.1571 3.97368L8.78611 3.97368L8.78611 16.8166C8.78611 18.3351 7.90008 19.1091 6.6725 19.1091C5.44491 19.1091 4.56383 18.3351 4.56383 16.8166L4.56383 3.97368Z" transform="translate(56.21935 8.954669)" id="Shape" fill="#777677" stroke="none" />
        <path d="M9.12766 19.824C14.632 19.824 18.2553 15.9341 18.2553 9.90954C18.2553 3.88986 14.632 0 9.12766 0C3.62334 0 0 3.88493 0 9.90954C0 15.9341 3.62334 19.824 9.12766 19.824ZM9.12766 15.8257C5.86566 15.8257 4.53908 12.9218 4.53908 9.90954L4.51433 9.90954C4.51433 6.89724 5.86566 3.9934 9.12766 3.9934C12.3897 3.9934 13.7162 6.89724 13.7162 9.90954C13.7162 12.9218 12.3897 15.8257 9.12766 15.8257Z" transform="translate(71.60371 8.506027)" id="Shape" fill="#777677" fill-rule="evenodd" stroke="none" />
        <path d="M1.97997 14.4157C3.0244 14.4157 4.38068 15.5052 6.5438 15.5052C8.18717 15.5052 8.79106 14.6523 8.79106 13.7205C8.79106 12.2809 7.17244 11.99 4.77172 11.1914C2.58386 10.4716 0.316795 9.5102 0.316795 6.07391C0.316795 1.94247 3.47484 0 6.99424 0C10.3849 0 12.261 1.19802 12.261 2.84961C12.3054 3.37189 12.1275 3.88874 11.7708 4.27407C11.414 4.65939 10.9112 4.87776 10.3849 4.87589C9.02866 4.87589 8.58316 4.15609 6.78634 4.15609C5.63796 4.15609 4.85587 4.76743 4.85587 5.69922C4.85587 6.7937 5.90031 6.92682 8.81581 7.91284C11.1076 8.68194 13.3252 9.88489 13.3252 13.4789C13.3252 17.852 10.1721 19.824 6.23195 19.824C3.75699 19.824 0 18.838 0 16.7032C0 15.5299 0.722688 14.4157 1.97997 14.4157Z" transform="translate(92.60128 8.506027)" id="Shape" fill="#777677" stroke="none" />
        <path d="M0.000126431 4.50776C-0.00451433 3.90871 0.118652 3.3155 0.361471 2.76742C0.590371 2.23625 0.917845 1.75286 1.32671 1.34262C1.73893 0.9295 2.22381 0.595284 2.75723 0.356595C3.87493 -0.118865 5.13914 -0.118865 6.25683 0.356595C6.78945 0.594122 7.27291 0.928515 7.68241 1.34262C8.10145 1.74962 8.43761 2.23342 8.67239 2.76742C9.14976 3.88065 9.14976 5.1398 8.67239 6.25302C8.20616 7.32199 7.34989 8.17483 6.27663 8.6392C5.15894 9.11466 3.89473 9.11466 2.77703 8.6392C1.70091 8.17902 0.843291 7.32484 0.381271 6.25302C0.131243 5.70482 0.00131264 5.10987 0.000126431 4.50776ZM1.09406 5.94242C0.896849 5.48987 0.797349 5.00108 0.802014 4.50776C0.795954 4.01112 0.895483 3.51883 1.09406 3.06323C1.2786 2.62435 1.54766 2.22572 1.88605 1.88986C2.22434 1.55289 2.62422 1.28347 3.06413 1.09611C3.98627 0.714846 5.02285 0.714846 5.94499 1.09611C6.83841 1.47041 7.54915 2.17831 7.92495 3.06816C8.31443 3.98527 8.31443 5.02038 7.92495 5.93749C7.55323 6.83007 6.84115 7.5393 5.94499 7.90954C5.02419 8.29745 3.98492 8.29745 3.06413 7.90954C2.62444 7.72398 2.22454 7.45621 1.88605 7.12072C1.54752 6.78308 1.27848 6.38281 1.09406 5.94242ZM2.78198 1.91451L4.76195 1.91451C5.25296 1.87305 5.74186 2.01544 6.13308 2.31385C6.44082 2.6129 6.60333 3.03012 6.57858 3.45764C6.60682 3.82993 6.47968 4.19735 6.22713 4.47325C5.98777 4.69965 5.67949 4.84016 5.35099 4.87258L6.68747 7.05663L5.69749 7.05663L4.41546 4.9564L3.71752 4.9564L3.71752 7.05663L2.77208 7.05663L2.78198 1.91451ZM4.41051 4.14786L3.71752 4.14786L3.71752 2.74277L4.8461 2.74277C4.97993 2.75101 5.11176 2.77927 5.23715 2.82659C5.35014 2.87282 5.4491 2.94758 5.52424 3.04351C5.66956 3.29007 5.66956 3.59563 5.52424 3.84219C5.4491 3.93812 5.35014 4.01288 5.23715 4.05911C5.11276 4.11046 4.98054 4.14047 4.8461 4.14786C4.701 4.15512 4.55561 4.15512 4.41051 4.14786Z" transform="translate(106.4362 0.152779)" id="Shape" fill="#777677" fill-rule="evenodd" stroke="none" />
      </g>
      <g id="DESKTOP/LOGOS/Puntos-Colombia---Isologo">
        <g id="Logo" transform="translate(-1.427586 -7.109375)">
          <g id="Shape">
            <use xlink:href="#path_1" fill="none" stroke="#FFFFFF" stroke-width="2" />
            <use stroke="none" fill="url(#gradient_1)" xlink:href="#path_1" />
          </g>
          <g clip-path="url(#mask_1)">
            <path d="M19.8784 0.00171214C24.4889 0.00156181 28.9494 1.63333 32.4637 4.60573C35.4684 7.03562 36.9707 9.54591 36.9707 12.1366C37.042 14.214 35.9925 16.1708 34.2192 17.2668C33.2171 17.9527 32.0288 18.318 30.8128 18.3136C29.8059 18.3145 28.814 18.0699 27.9238 17.6011C27.5569 17.3965 26.6049 16.4665 25.0677 14.8113C23.7268 13.3676 21.8518 12.5323 19.8775 12.4992C17.9032 12.4661 16.001 13.238 14.612 14.6359C11.8528 17.5633 11.8528 22.1224 14.612 25.0497C15.9402 26.4508 17.8011 27.2272 19.7353 27.1873C21.4534 27.1766 23.1145 26.5721 24.4349 25.4773C25.3319 24.6113 26.2233 23.7453 27.0983 22.8848C28.1118 22.0351 29.4065 21.5916 30.7303 21.6406C32.3792 21.617 33.9674 22.2596 35.1327 23.4219C36.3374 24.5325 37.0116 26.1006 36.9872 27.7354C36.9872 30.0374 35.6408 32.3632 32.948 34.7127C29.3706 37.9485 24.6996 39.7217 19.8674 39.6785C14.5983 39.6857 9.54281 37.605 5.81598 33.8951C2.08916 30.1852 -0.00278034 25.1511 0.00160953 19.9031C-0.0696905 14.3781 2.23079 9.08565 6.32454 5.35662C9.95544 1.8593 14.8278 -0.065689 19.8784 0.00171214L19.8784 0.00171214Z" transform="translate(22.84129 27.46343)" id="Shape" fill="#FFFFFF" stroke="none" />
            <g id="Group">
              <path d="M11.8517 10.0994C10.454 11.8479 6.789 11.2285 3.6633 8.71822C0.537605 6.20794 -0.854651 2.74945 0.543108 0.995538C1.94087 -0.758372 5.60585 -0.133542 8.70954 2.3877C11.8132 4.90895 13.2495 8.351 11.8517 10.0994Z" transform="translate(39.71674 37.62338)" id="Shape" fill="url(#gradient_2)" fill-opacity="0.655692" stroke="none" />
              <path d="M11.8517 10.1052C10.454 11.8537 6.789 11.2343 3.6633 8.71854C0.537605 6.20277 -0.854651 2.74976 0.543108 0.995848C1.94087 -0.758063 5.60585 -0.133233 8.73155 2.38253C11.8572 4.8983 13.2495 8.33487 11.8517 10.1052Z" transform="translate(33.64694 45.92674)" id="Shape" fill="url(#gradient_3)" fill-opacity="0.497712046" stroke="none" />
              <path d="M49.2574 43.0273C43.2426 50.3061 27.8893 47.4724 14.9518 36.7078C2.01424 25.9431 -3.59881 11.3144 2.41045 4.03571C8.41971 -3.24302 23.7785 -0.403879 36.7161 10.3607C49.6536 21.1254 55.2666 35.7541 49.2574 43.0273Z" transform="translate(-0.0001443583 45.97815)" id="Shape" fill="url(#gradient_4)" fill-opacity="0.7207589" style="mix-blend-mode: overlay;" stroke="none" />
              <path d="M38.1352 32.5038C33.6338 38.1382 21.8409 36.1486 11.7924 28.0587C1.74399 19.9688 -2.75195 8.8753 1.74399 3.21346C6.23993 -2.44838 18.0383 -0.425905 28.0868 7.68593C38.1352 15.7978 42.6367 26.8693 38.1352 32.5038Z" transform="translate(40.36486 0.5355249)" id="Shape" fill="url(#gradient_5)" fill-opacity="0.6915737" style="mix-blend-mode: hard-light;" stroke="none" />
              <path d="M48.1236 56.7719C54.3491 50.521 57.8355 42.0686 57.8199 33.264C57.8199 14.8918 42.9618 8.26507e-07 24.6809 8.26507e-07C15.2424 -0.00210687 6.25608 4.02705 0 11.0661C34.6083 11.5868 15.6395 50.0358 48.1236 56.7719Z" transform="translate(16.30535 9.37794)" id="Shape" fill="url(#gradient_6)" style="mix-blend-mode: overlay;" stroke="none" />
              <path d="M0 6.05151C1.05657 9.26884 2.75149 11.3078 6.2734 12.5191C11.2852 14.1579 16.7719 12.1642 19.5466 7.69581C20.622 5.98978 21.245 4.03977 21.3571 2.02848C21.3905 1.24733 20.9511 0.522151 20.2417 0.187395C19.5323 -0.147361 18.6906 -0.0266682 18.1048 0.493812C12.6734 5.07042 6.73015 -2.60842 0.665861 5.27322L0 6.05151Z" transform="translate(7.70418 82.19212)" id="Shape" fill="url(#gradient_7)" fill-opacity="0.871372759" style="mix-blend-mode: overlay;" stroke="none" />
            </g>
          </g>
        </g>
      </g>
    </g>
  </g>
</svg>

